<?xml version="1.0" encoding="utf-8"?>
<!-- Generator: Adobe Illustrator 22.1.0, SVG Export Plug-In . SVG Version: 6.00 Build 0)  -->
<svg version="1.1" xmlns="http://www.w3.org/2000/svg" xmlns:xlink="http://www.w3.org/1999/xlink" x="0px" y="0px"
	 viewBox="0 0 512 512" style="enable-background:new 0 0 512 512;" xml:space="preserve">
<style type="text/css">
	.st0{display:none;}
	.st1{display:inline;}
</style>
<g id="Layer_1">
	<path d="M211.9,197.4h-36.7v59.9h36.7v175.8h70.5V256.5h49.2l5.2-59.1h-54.4c0,0,0-22.1,0-33.7c0-13.9,2.8-19.5,16.3-19.5
		c10.9,0,38.2,0,38.2,0V82.9c0,0-40.2,0-48.8,0c-52.5,0-76.1,23.1-76.1,67.3C211.9,188.8,211.9,197.4,211.9,197.4z"/>
</g>
<g id="Layer_2" class="st0">
	<path class="st1" d="M182,185.2c0,16.7-13.4,30.2-30,30.2s-30-13.5-30-30.2c0-16.7,13.4-30.2,30-30.2S182,168.5,182,185.2z
		 M182.2,239.6h-60.5v193.5h60.5V239.6z M278.8,239.6h-60.1v193.5h60.1V331.5c0-56.5,72.9-61.1,72.9,0v101.6H412V310.6
		c0-95.3-107.9-91.8-133.2-44.9C278.8,265.7,278.8,239.6,278.8,239.6z"/>
</g>
</svg>
